# xmcd
#
# Track frame offsets:
#	150
#	14965
#	32413
#	51871
#	69456
#	85319
#	105117
#	122120
#	139223
#	156436
#	175599
#	190857
#	207247
#	220675
#	238530
#	253090
#	265393
#	282046
#	297726
#	311576
#
# Disc length: 4361 seconds
#
# Revision: 1
# Processed by: cddbd v1.5.2PL0 Copyright (c) Steve Scherf et al.
# Submitted via: audiograbber 1.83.01
#
DISCID=2b110714
DTITLE=Various Artist - Halland's Country Hits Volume 1
DYEAR=1900
DGENRE=
TTITLE0=George Jones - The Right Left Hand
TTITLE1=Wynonna Judd - I Saw The Light
TTITLE2=Wynonna Judd - My Strongest Weakness
TTITLE3=Wynonna Judd - No One Else On Earth
TTITLE4=Wynonna Judd - Only Love
TTITLE5=Wynonna Judd - She Is His Only Need
TTITLE6=Wynonna Judd - Tell Me Why
TTITLE7=Judds - Born To Be Blue
TTITLE8=Judds - Give A Little Love
TTITLE9=Judds - Grandpa (Tell Me Bout The Good...)
TTITLE10=Judds - Have Mercy
TTITLE11=Judds - I Know Where I'm Going
TTITLE12=Judds - Let Me Tell You About Love
TTITLE13=Judds - Love Is Alive
TTITLE14=Judds - Mama He's Crazy
TTITLE15=Judds - Rockin' With The Rhythm...The Rain
TTITLE16=Judds - Turn It Loose
TTITLE17=Judds - Why Not Me
TTITLE18=Toby Keith - He Ain't Worth Missing
TTITLE19=Toby Keith - Should've Been A Cowboy
EXTD=
EXTT0=
EXTT1=
EXTT2=
EXTT3=
EXTT4=
EXTT5=
EXTT6=
EXTT7=
EXTT8=
EXTT9=
EXTT10=
EXTT11=
EXTT12=
EXTT13=
EXTT14=
EXTT15=
EXTT16=
EXTT17=
EXTT18=
EXTT19=
PLAYORDER=
